# xmcd
#
# Track frame offsets:
# 150
# 8276
# 28108
# 75985
# 100168
# 157380
# 167691
# 186722
# 214273
# 236083
# 278743
#
# Disc length: 4034 seconds
#
#
# Revision: 2
# Processed by: cddbd v1.5.2PL0 Copyright (c) Steve Scherf et al.
# Submitted via: FreeRIP 2.951 
#
DISCID=8e0fc00b
DTITLE=Grateful Dead - 06.23.1974 -  Jai-Alai Fronton, Miami, FL
DYEAR=1974
DGENRE=Psychedelic Rock
TTITLE0=Weather Report Suite Prelude ->
TTITLE1=Weather Report Suite Part One ->
TTITLE2=Let It Grow ->
TTITLE3=China Doll
TTITLE4=Phil and Ned - Seastones
TTITLE5=Tuning ->
TTITLE6=Jam ->
TTITLE7=Ship Of Fools
TTITLE8=Big River
TTITLE9=Black Peter
TTITLE10=Around and Around
EXTD=SBD
EXTT0=
EXTT1=
EXTT2=
EXTT3=
EXTT4=
EXTT5=
EXTT6=
EXTT7=
EXTT8=
EXTT9=
EXTT10=
PLAYORDER=
